<svg xmlns="http://www.w3.org/2000/svg" viewBox="0 0 135 103"><defs><style>.cls-1{fill:#00bfff;}.cls-2{font-size:20px;fill:#fff;font-family:NotoSansCJKtc-Regular-B5pc-H, Noto Sans CJK TC;letter-spacing:0.2em;}.cls-3{fill:none;stroke:#fff;stroke-miterlimit:10;}</style></defs><title>首頁v2 切圖</title><g id="menu"><rect class="cls-1" width="135" height="103"/><text class="cls-2" transform="translate(23.87 78.54)">所有活動</text><path class="cls-3" d="M81.28,26.66a13.8,13.8,0,1,1-5.51-5.34"/><path class="cls-3" d="M77.06,27.74a9.67,9.67,0,1,1-2.38-2.27"/><path class="cls-3" d="M73.77,30.87a5.12,5.12,0,0,1,.72,2.64,5.2,5.2,0,1,1-5.2-5.2,5.3,5.3,0,0,1,2.22.49"/><path class="cls-3" d="M84.75,23.46l-1.19-2a1.4,1.4,0,0,0-.21-1.72l-.64-.65A1.41,1.41,0,0,0,81,18.91l-2-1.19a1.7,1.7,0,0,0-2.52,1l-1,3.5A1.71,1.71,0,0,0,76.08,24l-7.81,8.22a1.41,1.41,0,0,0,2,2l8.22-7.81a1.71,1.71,0,0,0,1.77.56l3.5-1A1.69,1.69,0,0,0,84.75,23.46Z"/></g></svg>