<svg xmlns="http://www.w3.org/2000/svg" viewBox="0 0 135 103"><defs><style>.cls-1{fill:#007bff;}.cls-2,.cls-3{fill:#fff;}.cls-3{font-size:20px;font-family:NotoSansCJKtc-Regular-B5pc-H, Noto Sans CJK TC;letter-spacing:0.19em;}.cls-4{letter-spacing:0.2em;}</style></defs><title>首頁v2 切圖</title><g id="menu"><rect class="cls-1" width="135" height="103"/><path class="cls-2" d="M71,27.64A3.38,3.38,0,0,0,67.44,24a5.68,5.68,0,0,0-4.22,2.08l-1.51-1.38a8,8,0,0,1,6-2.88c3.59,0,5.86,2.24,5.86,5.64,0,4.74-5.8,6.69-5.19,11.78H66.1C65.33,33.62,71,31.58,71,27.64Zm-5.67,16.9a2,2,0,1,1,3.94,0,2,2,0,1,1-3.94,0Z"/><text class="cls-3" transform="translate(45.08 78.54)">FQ<tspan class="cls-4" x="33.44" y="0">A</tspan></text></g></svg>