<svg xmlns="http://www.w3.org/2000/svg" viewBox="0 0 135 103.5"><defs><style>.cls-1{fill:#6495ed;}.cls-2{font-size:20px;font-family:NotoSansCJKtc-Regular-B5pc-H, Noto Sans CJK TC;letter-spacing:0.2em;}.cls-2,.cls-4{fill:#fff;}.cls-3{fill:none;stroke:#fff;stroke-linecap:round;stroke-linejoin:round;}</style></defs><title>首頁v2 切圖</title><g id="menu"><rect class="cls-1" width="135" height="103"/><text class="cls-2" transform="translate(46.87 82.54)">榜單</text><path class="cls-3" d="M65.08,40.62,61.42,52.54a1,1,0,0,0,1.52,1.08L69,49.11h0l6.08,4.51a1,1,0,0,0,1.53-1.08L73,40.82"/><circle class="cls-3" cx="69.29" cy="31.26" r="10.26"/><circle class="cls-3" cx="69.29" cy="31.26" r="6.71"/><path class="cls-4" d="M67.61,33.89h1.11a.21.21,0,0,0,.22-.21V29.17a.21.21,0,0,0-.22-.21h-.79a.22.22,0,0,1-.22-.21v-.17a.22.22,0,0,1,.18-.21,4,4,0,0,0,1.2-.43.2.2,0,0,1,.11,0h.39a.21.21,0,0,1,.21.21v5.56a.21.21,0,0,0,.21.21h1a.21.21,0,0,1,.21.21v.3a.21.21,0,0,1-.21.21H67.61a.21.21,0,0,1-.21-.21v-.3A.22.22,0,0,1,67.61,33.89Z"/></g></svg>