<svg xmlns="http://www.w3.org/2000/svg" viewBox="0 0 30.51 30.84"><defs><style>.cls-1{fill:none;stroke:#fff;stroke-miterlimit:10;}</style></defs><title>首頁v2 切圖</title><g id="menu"><path class="cls-1" d="M26.29,9.69a13.84,13.84,0,1,1-5.51-5.34"/><path class="cls-1" d="M22.07,10.77A9.67,9.67,0,1,1,19.69,8.5"/><path class="cls-1" d="M18.78,13.89a5.2,5.2,0,1,1-4.48-2.55,5.12,5.12,0,0,1,2.22.49"/><path class="cls-1" d="M29.77,6.49l-1.19-2a1.44,1.44,0,0,0-.21-1.73l-.65-.64A1.4,1.4,0,0,0,26,1.94L24,.75a1.69,1.69,0,0,0-2.52,1l-1,3.5A1.7,1.7,0,0,0,21.1,7l-7.81,8.22a1.4,1.4,0,0,0,2,2l8.22-7.81a1.72,1.72,0,0,0,1.77.56l3.5-1A1.7,1.7,0,0,0,29.77,6.49Z"/></g></svg>