<svg xmlns="http://www.w3.org/2000/svg" viewBox="0 0 135 103"><defs><style>.cls-1{fill:#00ced1;}.cls-2{font-size:20px;fill:#fff;font-family:NotoSansCJKtc-Regular-B5pc-H, Noto Sans CJK TC;letter-spacing:0.2em;}.cls-3{fill:none;stroke:#fff;stroke-miterlimit:10;}</style></defs><title>首頁v2 切圖</title><g id="menu"><rect class="cls-1" width="135" height="103"/><text class="cls-2" transform="translate(35.87 83.54)">獎學金</text><path class="cls-3" d="M80.18,40.89v5.42c0,2.78-4.9,5-10.94,5s-10.94-2.25-10.94-5V40.89"/><path class="cls-3" d="M80.1,35.67h.08v5.41c0,2.78-4.9,5-10.94,5s-10.94-2.25-10.94-5V35.67h.08"/><path class="cls-3" d="M80.15,29.64h0v5.42a2.55,2.55,0,0,1-.08.61c-.65,2.49-5.27,4.42-10.86,4.42S59,38.16,58.38,35.67a2.13,2.13,0,0,1-.08-.61V29.64h0"/><ellipse class="cls-3" cx="69.24" cy="30.03" rx="10.94" ry="5.03"/></g></svg>