<svg xmlns="http://www.w3.org/2000/svg" viewBox="0 0 68.42 68.42"><defs><style>.cls-1{fill:none;stroke:#068fdf;stroke-miterlimit:10;}.cls-2{fill:#068fdf;}.cls-3{fill:#fbb03b;}</style></defs><title>課程頁1</title><g id="課程種類"><circle class="cls-1" cx="34.21" cy="34.21" r="33.71"/><path class="cls-2" d="M55.23,32.17H50.06A16.13,16.13,0,0,0,36.22,18.11V12.86a1.61,1.61,0,0,0-1.6-1.62H33.8a1.6,1.6,0,0,0-1.6,1.62v5.25A16.14,16.14,0,0,0,18.35,32.17H13.19a1.6,1.6,0,0,0-1.6,1.62v.83a1.61,1.61,0,0,0,1.6,1.63h5.16A16.14,16.14,0,0,0,32.2,50.31v5.25a1.61,1.61,0,0,0,1.6,1.62h.82a1.62,1.62,0,0,0,1.6-1.62V50.31A16.13,16.13,0,0,0,50.06,36.25h5.17a1.62,1.62,0,0,0,1.6-1.63v-.83A1.61,1.61,0,0,0,55.23,32.17Zm-19,15.74V46.06a1.61,1.61,0,0,0-1.6-1.62H33.8a1.6,1.6,0,0,0-1.6,1.62v1.85A13.76,13.76,0,0,1,20.72,36.25h1.82a1.62,1.62,0,0,0,1.6-1.63v-.83a1.61,1.61,0,0,0-1.6-1.62H20.72A13.76,13.76,0,0,1,32.2,20.51v1.84A1.61,1.61,0,0,0,33.8,24h.82a1.62,1.62,0,0,0,1.6-1.63V20.51A13.78,13.78,0,0,1,47.7,32.17H45.88a1.61,1.61,0,0,0-1.6,1.62v.83a1.62,1.62,0,0,0,1.6,1.63H47.7A13.78,13.78,0,0,1,36.22,47.91Z"/><path class="cls-3" d="M34.21,27.05a7.16,7.16,0,1,0,7,7.16A7.11,7.11,0,0,0,34.21,27.05Z"/></g></svg>