<svg xmlns="http://www.w3.org/2000/svg" viewBox="0 0 68.42 68.42"><defs><style>.cls-1{fill:none;stroke:#068fdf;stroke-miterlimit:10;}.cls-2{fill:#fbb03b;}.cls-3{fill:#068fdf;}</style></defs><title>首頁v2</title><g id="合作廠商"><circle class="cls-1" cx="34.21" cy="34.21" r="33.71"/><path class="cls-2" d="M14.58,39.12h5.49a.93.93,0,0,1,1,1.12,4,4,0,0,1-.73,1.79A2.15,2.15,0,1,0,24,44.28,2.07,2.07,0,0,0,24,42a3.71,3.71,0,0,1-.68-1.58c-.09-.84.27-1.26,1.12-1.26h5.38V44.5c0,.84.41,1.21,1.25,1.11a3.58,3.58,0,0,0,1.59-.68,2.05,2.05,0,0,1,2.31,0,2.15,2.15,0,1,1-2.24,3.67,3.73,3.73,0,0,0-1.78-.73.94.94,0,0,0-1.13,1v5.48h0l-.39,0H15.28c-.59,0-.71-.12-.71-.68C14.57,48.93,14.58,39.26,14.58,39.12Z"/><path class="cls-3" d="M15.25,16l14.53,0h0v5.49a.94.94,0,0,1-1.13,1,3.88,3.88,0,0,1-1.78-.73,2.15,2.15,0,1,0-2.24,3.67,2.05,2.05,0,0,0,2.31-.05,3.7,3.7,0,0,1,1.59-.68c.84-.09,1.25.27,1.25,1.12v5.36h0v0H24.41c-.85,0-1.21.42-1.12,1.25A3.7,3.7,0,0,0,24,34,2.07,2.07,0,0,1,24,36.35a2.15,2.15,0,1,1-3.67-2.24,3.94,3.94,0,0,0,.73-1.78,1,1,0,0,0-1-1.13H14.59c0-.14,0-.26,0-.38V16.69C14.57,16.1,14.68,16,15.25,16Z"/><path class="cls-3" d="M43.07,39.11c.85,0,1.22-.42,1.12-1.25a3.7,3.7,0,0,0-.68-1.59,2.05,2.05,0,0,1,0-2.31,2.15,2.15,0,1,1,3.67,2.24A3.85,3.85,0,0,0,46.4,38a1,1,0,0,0,1,1.13H52.9c0,.14,0,.26,0,.38V53.62c0,.59-.12.71-.69.71l-14.51,0V48.83a.94.94,0,0,1,1.13-1,3.73,3.73,0,0,1,1.78.73,2.15,2.15,0,1,0,2.24-3.67,2.05,2.05,0,0,0-2.31,0,3.58,3.58,0,0,1-1.59.68c-.83.1-1.25-.27-1.25-1.11V39.14h0v0h5.36Z"/><path class="cls-2" d="M31.82,22.47a2.14,2.14,0,0,1,3-.71,3.92,3.92,0,0,0,1.79.73.94.94,0,0,0,1.12-1c0-1.69,0-3.38,0-5.07V16h0l.37,0H52.2c.6,0,.72.11.72.68,0,4.73,0,14.4,0,14.53H47.41a.94.94,0,0,1-1-1.12,3.93,3.93,0,0,1,.74-1.79A2.15,2.15,0,1,0,43.47,26a2.05,2.05,0,0,0,0,2.31,3.71,3.71,0,0,1,.68,1.58c.1.84-.27,1.26-1.12,1.26H37.69V25.82c0-.85-.41-1.21-1.25-1.12a3.75,3.75,0,0,0-1.59.68,2,2,0,0,1-2.3.05A2.16,2.16,0,0,1,31.82,22.47Z"/></g></svg>