<svg xmlns="http://www.w3.org/2000/svg" viewBox="0 0 49 49"><defs><style>.cls-1{fill:#ccc;}.cls-2{fill:#fff;}</style></defs><title>首頁v2</title><g id="menu"><circle class="cls-1" cx="24.5" cy="24.5" r="24.5"/><path class="cls-2" d="M18.37,37.89a3.17,3.17,0,1,1,3.17-3.17A3.17,3.17,0,0,1,18.37,37.89Z"/><path class="cls-2" d="M32.6,37.89a3.17,3.17,0,1,1,3.17-3.17A3.17,3.17,0,0,1,32.6,37.89Z"/><path class="cls-2" d="M32.6,35.21H19.07a1.19,1.19,0,0,1-1-.49,1.17,1.17,0,0,1-.17-1.07l1.81-4.46a.49.49,0,0,1,.91.37L18.85,34a.26.26,0,0,0,0,.15.2.2,0,0,0,.17.09H32.6a.49.49,0,0,1,0,1Z"/><path class="cls-2" d="M36.78,17.44a1.21,1.21,0,0,0-1-.49H15.44l-1-2.19a.48.48,0,0,0-.45-.29H9.5a.49.49,0,0,0,0,1h4.21l6,13.69a1.18,1.18,0,0,0,1.09.72H32.49A1.2,1.2,0,0,0,33.63,29L37,18.5A1.18,1.18,0,0,0,36.78,17.44ZM31.49,27h-10a.49.49,0,0,1,0-1h10a.49.49,0,1,1,0,1Zm.86-3.09H20.64a.48.48,0,0,1-.48-.49.47.47,0,0,1,.48-.48H32.35a.48.48,0,0,1,.49.48A.49.49,0,0,1,32.35,23.94Zm.7-3.08H19.94a.49.49,0,0,1,0-1H33.05a.49.49,0,1,1,0,1Z"/><path class="cls-2" d="M10.42,15a.77.77,0,1,1-.77-.77A.76.76,0,0,1,10.42,15Z"/></g></svg>