<svg xmlns="http://www.w3.org/2000/svg" viewBox="0 0 49 49"><defs><style>.cls-1{fill:#ccc;}.cls-2{fill:#fff;}</style></defs><title>首頁v2</title><g id="menu"><circle class="cls-1" cx="24.5" cy="24.5" r="24.5"/><path class="cls-2" d="M20.11,27.14l.27-.05.11,0a19.21,19.21,0,0,1,3.38-.27H25c.72,0,1.42,0,2.09.1.37,0,.72.09,1.07.15a4,4,0,0,1,.5.09,10.66,10.66,0,0,1,2.22.68,8.32,8.32,0,0,1,1.17.65c1.83,1.23,3,3.25,3,6.41a.27.27,0,0,1-.25.29H14a.2.2,0,0,1-.17-.09.28.28,0,0,1-.08-.2C13.76,30.06,16.39,27.89,20.11,27.14Z"/><circle class="cls-2" cx="24.38" cy="19.03" r="5.8" transform="translate(-1.64 35.74) rotate(-70.67)"/></g></svg>