<svg xmlns="http://www.w3.org/2000/svg" viewBox="0 0 200.58 42.3"><defs><style>.cls-1,.cls-3,.cls-6{fill:#088fdf;}.cls-2{fill:#fbb03b;}.cls-3{font-size:25.41px;letter-spacing:0.1em;}.cls-3,.cls-5{font-family:LiGothicMed, Apple LiGothic;}.cls-4,.cls-5{fill:#333;}.cls-5{font-size:17.85px;letter-spacing:0.1em;}.cls-6{font-size:24.99px;letter-spacing:0.1em;}</style></defs><title>首頁-手機版v2</title><g id="menu"><path class="cls-1" d="M30.52,15.64V10.7a8.07,8.07,0,0,0-2.07-6,8.07,8.07,0,0,0-6-2.07,9.73,9.73,0,0,0-4.12.79,9.07,9.07,0,0,0-3.12,2.66A7.8,7.8,0,0,0,8.43,2.67,8.87,8.87,0,0,0,2.34,4.74,6.8,6.8,0,0,0,0,10.08V34.22H8.57V12.16c0-1.3.43-1.95,1.27-1.95a1,1,0,0,1,.91.4A3.49,3.49,0,0,1,11,12.16V34.22h8.58V12c0-1.21.42-1.82,1.26-1.82a1,1,0,0,1,.9.39,3.52,3.52,0,0,1,.22,1.56v3.48Z"/><path class="cls-1" d="M34.12,30h-.44a3.8,3.8,0,0,1-2.54-.61c-.42-.41-.64-.67-.64-1.89V17.42H22V28.73a9.21,9.21,0,0,0,2.61,7q2.61,2.51,7.29,2.5h8.74v-8.3Z"/><path class="cls-2" d="M34.35,19.67A2.37,2.37,0,0,0,32,17.28v4.78A2.37,2.37,0,0,0,34.35,19.67Z"/><path class="cls-2" d="M37.34,19.68h0A5.46,5.46,0,0,0,32,14.25v1.48a3.87,3.87,0,0,1,2.73,1.18,3.9,3.9,0,0,1,0,5.53A3.91,3.91,0,0,1,32,23.62v1.47A5.46,5.46,0,0,0,37.34,19.68Z"/><path class="cls-2" d="M40.15,19.68h0A8.31,8.31,0,0,0,32,11.37v1.48a6.82,6.82,0,0,1,0,13.64V28A8.31,8.31,0,0,0,40.15,19.68Z"/><text class="cls-3" transform="translate(52.28 21.16)">行動<tspan class="cls-4" x="55.9" y="0">學習網</tspan></text><text class="cls-5" transform="translate(54.93 37.02)">www.tw<tspan class="cls-6" x="63.79" y="0">s</tspan><tspan x="74.53" y="0">tudy.com</tspan></text></g></svg>