<svg xmlns="http://www.w3.org/2000/svg" viewBox="0 0 89.22 89.22"><defs><style>.cls-1{fill:#fbb03b;}.cls-2{fill:#fff;}.cls-3{fill:none;stroke:#fff;stroke-linecap:round;stroke-linejoin:round;}</style></defs><title>首頁-手機版v2切圖</title><g id="menu"><rect class="cls-1" width="89.22" height="89.22"/><path class="cls-2" d="M29.15,61.45H21V59.82h4a18.45,18.45,0,0,0-1.57-3L25,56a21.6,21.6,0,0,1,1.66,2.88L25,59.82h4.13Zm7.77,7.72a15.53,15.53,0,0,0,4.57,4.66,7.46,7.46,0,0,0-1.41,1.55A18.81,18.81,0,0,1,36,70.69v5.73H34V70.89a14.7,14.7,0,0,1-4.35,4.62,8.52,8.52,0,0,0-1-1.26v.89H23.65v1H21.88V68.66h6.7v5.08a13.46,13.46,0,0,0,4.49-4.57H29V67.31H34V65.72H29.8V57H40.3v8.71H36v1.59h4.93v1.86Zm-8.47-4.8H21.9V62.76h6.55Zm-6.55,1.3h6.55v1.6H21.9Zm4.89,4.67H23.65v3.14h3.14Zm4.84-9.8h2.45V58.67H31.63Zm0,3.52h2.45v-1.9H31.63Zm6.77-5.39H35.85v1.87H38.4Zm0,3.49H35.85v1.9H38.4Z"/><path class="cls-2" d="M54.27,70c-.29-.68-1-1.9-1.55-3v9.44H50.77V67.27a21.7,21.7,0,0,1-2.61,5.5,10.21,10.21,0,0,0-.95-2,22.57,22.57,0,0,0,3.08-6.48H47.54v-1.9h3.23V59.24c-.81.16-1.63.29-2.41.4a6.68,6.68,0,0,0-.55-1.59,29,29,0,0,0,6.24-1.77L55.2,58a20.12,20.12,0,0,1-2.48.79v3.63h2.67v1.9H52.72v.47c.6.7,2.32,3,2.7,3.53ZM67.64,74.1v1.83H55V74.1h5.48V71.56H56.17V69.79h4.31V67.51c-1.24.13-2.5.22-3.65.26a5.49,5.49,0,0,0-.49-1.59A48,48,0,0,0,65.19,65l1.3,1.54a31.78,31.78,0,0,1-4,.76v2.52h4.25v1.77H62.51V74.1Zm-1.12-9.71H56.32V57.18h10.2Zm-2-5.46H58.25v3.72h6.28Z"/><path class="cls-3" d="M54,18a1.44,1.44,0,1,1-2.64.78,1.38,1.38,0,0,1,.24-.78H49.63a1.38,1.38,0,0,1,.23.95A1.43,1.43,0,0,1,47,18.74a1.38,1.38,0,0,1,.24-.78H45.3a1.38,1.38,0,0,1,.23.95,1.43,1.43,0,0,1-2.86-.17A1.38,1.38,0,0,1,42.9,18H41a1.38,1.38,0,0,1,.23.95,1.44,1.44,0,0,1-2.87-.17,1.38,1.38,0,0,1,.24-.78H36.64a1.44,1.44,0,1,1-2.64.78,1.38,1.38,0,0,1,.24-.78h-2V46.79a1.68,1.68,0,0,0,1.68,1.68H54.29A1.68,1.68,0,0,0,56,46.79V18Z"/><line class="cls-3" x1="35.11" y1="24.98" x2="53.1" y2="24.98"/><line class="cls-3" x1="35.11" y1="28.18" x2="53.1" y2="28.18"/><line class="cls-3" x1="35.11" y1="31.39" x2="53.1" y2="31.39"/><line class="cls-3" x1="35.11" y1="34.59" x2="53.1" y2="34.59"/><line class="cls-3" x1="35.11" y1="37.8" x2="53.1" y2="37.8"/></g></svg>