<svg xmlns="http://www.w3.org/2000/svg" viewBox="0 0 65.59 56.37"><defs><style>.cls-1{fill:#fbb03b;}.cls-2{fill:#068fdf;}</style></defs><title>首頁v2 切圖</title><g id="_4_5" data-name="4&amp;5"><path class="cls-1" d="M35.13,41.92l.55-.09.22,0a46.4,46.4,0,0,1,6.93-.47h2.29c1.46,0,2.89.06,4.27.18.75.07,1.48.15,2.2.26l1,.16a24.08,24.08,0,0,1,4.52,1.24,15.33,15.33,0,0,1,2.41,1.16c3.74,2.21,6.05,5.84,6.05,11.54a.51.51,0,0,1-.51.51H22.66a.51.51,0,0,1-.36-.15.48.48,0,0,1-.15-.36C22.15,47.18,27.52,43.28,35.13,41.92Z"/><circle class="cls-1" cx="43.87" cy="27.33" r="10.43" transform="translate(3.56 59.68) rotate(-70.67)"/><path class="cls-2" d="M3.66,0H26.4a3.65,3.65,0,0,1,3.65,3.66V16.79a3.65,3.65,0,0,1-3.65,3.66H25V23a1.26,1.26,0,0,1-2.13.91L19.2,20.45H3.66A3.66,3.66,0,0,1,0,16.79V3.66A3.66,3.66,0,0,1,3.66,0Z"/></g></svg>