<svg xmlns="http://www.w3.org/2000/svg" viewBox="0 0 59.92 64.01"><defs><style>.cls-1{fill:#fbb03b;}.cls-2{fill:#068fdf;}.cls-3{fill:#fff;}</style></defs><title>首頁v2 切圖</title><g id="_4_5" data-name="4&amp;5"><path class="cls-1" d="M16.77,40.21,11.61,61a2.43,2.43,0,0,0,1.8,2.92h0a2.39,2.39,0,0,0,2.87-1.62l5.43-22.11Z"/><path class="cls-1" d="M43,40.22,48.19,61a2.42,2.42,0,0,1-1.79,2.92h0a2.41,2.41,0,0,1-2.91-1.79L38.25,40.22Z"/><rect class="cls-2" y="3.85" width="59.92" height="40.16" rx="2.18"/><rect class="cls-1" x="22.32" width="15.17" height="6.41" rx="2.21"/><polygon class="cls-3" points="29.95 12.88 33.53 20.14 41.54 21.3 35.75 26.95 37.12 34.93 29.95 31.17 22.78 34.93 24.15 26.95 18.36 21.3 26.37 20.14 29.95 12.88"/></g></svg>