<svg xmlns="http://www.w3.org/2000/svg" viewBox="0 0 47.82 47.82"><defs><style>.cls-1{fill:none;stroke:#068fdf;stroke-miterlimit:10;stroke-width:0.75px;}.cls-2{fill:#068fdf;}</style></defs><title>首頁v2 切圖</title><g id="menu"><circle class="cls-1" cx="23.91" cy="23.91" r="23.54"/><g id="MrPflU"><path class="cls-2" d="M15.1,10.18a4.58,4.58,0,0,1,1.76.82,3.93,3.93,0,0,1,1.33,2c.32,1.22.7,2.42,1,3.65a3.29,3.29,0,0,1-.87,3c-.36.38-.73.75-1.11,1.12a.34.34,0,0,0-.1.41,13.88,13.88,0,0,0,8.54,9.21c.32.12.65.21,1,.33a.4.4,0,0,0,.48-.13q.5-.53,1-1a3.43,3.43,0,0,1,3.29-.89q1.77.42,3.51,1a3.81,3.81,0,0,1,2.67,2.74l.09.31v1A3.76,3.76,0,0,1,36.38,36c-.5.45-1,.94-1.43,1.42a2.46,2.46,0,0,1-1.67.69,15.94,15.94,0,0,1-3.09-.17,23.6,23.6,0,0,1-6.28-1.72A23.37,23.37,0,0,1,9.76,14.57a2.34,2.34,0,0,1,.68-1.67c.46-.48,1-.92,1.39-1.41a3.88,3.88,0,0,1,2.24-1.31Z"/></g></g></svg>