<svg xmlns="http://www.w3.org/2000/svg" viewBox="0 0 550.6 58.37"><defs><style>.cls-1{fill:#088fdf;}.cls-2{fill:#fbb03b;}.cls-3{fill:#333;}</style></defs><title>首頁v2 切圖</title><g id="menu"><path class="cls-1" d="M49.4,21V13q0-6.3-3.35-9.65T36.41,0a15.56,15.56,0,0,0-6.67,1.28,14.54,14.54,0,0,0-5.06,4.29A12.62,12.62,0,0,0,13.64,0,14.36,14.36,0,0,0,3.79,3.35,11,11,0,0,0,0,12V51.07H13.88V15.35c0-2.1.68-3.15,2-3.15a1.57,1.57,0,0,1,1.47.64,5.55,5.55,0,0,1,.38,2.51V51.07H31.66V15.15c0-2,.68-3,2.05-3a1.52,1.52,0,0,1,1.45.63,5.74,5.74,0,0,1,.36,2.52V21Z"/><path class="cls-1" d="M55.24,44.2h-.72c-2.05,0-3.42-.32-4.11-1s-1-1.09-1-3.07V23.87H35.53V42.18q0,7.2,4.23,11.26t11.79,4.05H65.71V44.06Z"/><path class="cls-2" d="M55.6,27.52a3.83,3.83,0,0,0-3.78-3.87v7.73A3.83,3.83,0,0,0,55.6,27.52Z"/><path class="cls-2" d="M60.43,27.53h0v0h0a8.83,8.83,0,0,0-8.61-8.76v2.39A6.31,6.31,0,0,1,56.23,23a6.29,6.29,0,0,1,0,9,6.31,6.31,0,0,1-4.41,1.91v2.39A8.83,8.83,0,0,0,60.43,27.53Z"/><path class="cls-2" d="M65,27.53h0v0h0A13.44,13.44,0,0,0,51.82,14.08v2.39a11,11,0,0,1,0,22.09V41A13.44,13.44,0,0,0,65,27.53Z"/><path class="cls-1" d="M95.6,55.16H91.81v-17a16,16,0,0,1-1.6,1.93L88.28,42l-2.06-3.83a56.67,56.67,0,0,0,9.54-11.23l3,2.18-1.43,2.26L95.6,34.26Zm2.75-35.74-1.44,1.64a52.36,52.36,0,0,1-8.06,7.61l-2.42-3.5a34.68,34.68,0,0,0,8.72-7.85ZM118,33.77V50.51a4.72,4.72,0,0,1-.94,3.37c-.63.63-2.12.95-4.45.95l-5.79,0-.91-4,5.59.29h.66c.91,0,1.44-.11,1.61-.33a3.3,3.3,0,0,0,.24-1.61V33.77H99.42V30.11H124.1v3.66ZM101.52,23V19.38H122V23Z"/><path class="cls-1" d="M152.52,51.91V53a54.07,54.07,0,0,1-9.67,1l-10.44.58-.7-3.45h5.06c1.89,0,3.41-.06,4.56-.17v-3h-7.69V45h7.69V42.57h-7.94V29.45h7.94v-2.3H131.5v-3h9.83V21.47a23.48,23.48,0,0,1-3.29.17l-4.11.12-1.15-3.17q3.85-.16,10.07-.16a31.34,31.34,0,0,0,8.27-1.07L153,20a36.47,36.47,0,0,1-8.14,1.4v2.72H154v1h4.93V17.89h3.46v7.28h6.78c0,1.7-.08,5.52-.18,11.44s-.14,9.76-.14,11.51a12.26,12.26,0,0,1-.52,3.81,4.73,4.73,0,0,1-1.42,2.28c-.6.49-2.19.74-4.77.74a14.24,14.24,0,0,1-1.56,0l-1.48-4,.74.08c1.42.19,2.34.29,2.75.29a2,2,0,0,0,2-1.07q.52-1.06.74-6.15c.14-3.38.22-6.43.25-9.13s.05-4.84.08-6.43h-3.29a84.79,84.79,0,0,1-1.69,14,41.19,41.19,0,0,1-2.84,8.29q-2,4.34-2.22,4.34ZM141.33,34.76V32.08h-4.44v2.68Zm0,5.18v-2.8h-4.44v2.8Zm11.19,11.93c.24,0,1-1.25,2.24-3.73a30.82,30.82,0,0,0,2.71-8,95.39,95.39,0,0,0,1.34-11.61h-5V27.15h-9v2.3h8.22V42.57h-8.22V45h7.69v2.88h-7.69v2.84l4.07-.37c1.89-.22,3.1-.39,3.62-.5Zm-3-17.11V32.08h-4.73v2.68Zm0,5.18v-2.8h-4.73v2.8Z"/><path class="cls-3" d="M206.72,39.16v3A58.23,58.23,0,0,1,198,45.61h16.66v3.25H198v2.51q0,3.42-3.66,3.42h-5.92l-.9-3.25,5.51.16a1.05,1.05,0,0,0,1.19-1.19V48.86H176.78V45.61h17.44V43.89c.47-.06,1.49-.29,3.09-.7l3.94-1h-16.9v-3Zm3.54-1.73h-29v5.92h-3.58V34.26h2l-.41-15.42a39.27,39.27,0,0,0,8.8-1.15l1.77,3a27.85,27.85,0,0,1-7.11,1.07l.08,2.06h6.29v2.75H183l0,2.26h6.13v2.8h-6l.08,2.67h25.17l0-2.67h-5.64v-2.8h5.76l0-2.26h-5.8V23.78h5.89l0-2.18h-6.38V18.39h9.91l-.41,15.87h2.1v9.09h-3.62ZM196.36,23a15.74,15.74,0,0,1-2.18,1.2l-2.55,1.23-2-2.67,2.55-.78A6.13,6.13,0,0,0,194,21.1l-1.36-1-1.36-.86,2.14-1.89,1.36.86,1.81,1.36L198,18.47a5.59,5.59,0,0,0,1.07-1.11l2,1.81a8.27,8.27,0,0,1-1.19,1.19l-1.2,1,1,.9,1.15,1.2-2.47,1.81-1-1.28Zm.21,8.23a17.3,17.3,0,0,1-4.28,2.1,2.25,2.25,0,0,0-.41.16l-1.73-2.71.82-.17a12,12,0,0,0,3.13-1.15l.24-.12-1.39-1-1.32-.9,2.1-1.77,1.4.9a9.22,9.22,0,0,1,1.68,1.24,9.07,9.07,0,0,0,1.44-1.16l1.36-1.35,2.1,1.81-1.44,1.35L199,29.49l1.15,1,1.15,1.11-2.59,2-1.15-1.4Z"/><path class="cls-3" d="M235.59,31.26a58.47,58.47,0,0,1-11,6.05l-2-3.38a64.79,64.79,0,0,0,11.18-5.67c.28-.17.64-.38,1.07-.66Zm.74,3.78v-13H222.8V18.51H240V34.14l3.86.74a7.66,7.66,0,0,1-.53,1.44l-.5,1H256.4V55.16h-3.78V53.22H230v1.94h-3.78V37.27h12.58l.45-.91c.09-.19.22-.55.41-1.07a.63.63,0,0,1,.09-.25Zm-6.21-5.55a37.55,37.55,0,0,0-5.38-3.86l-.58-.37,2-2.64a44.64,44.64,0,0,1,6.3,3.91ZM230,43.6h22.66v-3H230Zm0,6.29h22.66V46.68H230ZM254.88,36V22.05h-13.4V18.51h17.15V36Zm-.57-5.39a58.77,58.77,0,0,1-9.54,3.66c-.42.11-.88.25-1.4.41l-1.73-3.33a65.45,65.45,0,0,0,12.3-4.23Zm-5.84-1.77c-1-.76-2-1.48-3-2.13l-2.72-1.77,2.14-2.51,2.71,1.44a27.42,27.42,0,0,1,3.13,2Z"/><path class="cls-3" d="M272.28,44.75c-.06.66-.16,1.92-.31,3.78a26,26,0,0,1-1.46,6.34l-3.29-1A39.15,39.15,0,0,0,269,45.94c.06-.38.12-.86.21-1.44Zm10-20.23q-4.35,9.74-8.43,14.56l2.43-.25a13.2,13.2,0,0,0,1.42-.21l.55-.12L277.71,37l-.66-1.56,2.84-.79a38.82,38.82,0,0,1,2.38,6.71c.06.19.13.42.21.7l-3.25.9-.16-.74-.17-.66c-1,.2-2.49.4-4.61.62l-5.88.66-.94-3.54h1.23l1,0a49.57,49.57,0,0,0,5.18-7.48L271.7,32l-3.7.21-.61-3.33h1.23l.78,0a51.16,51.16,0,0,0,4.89-11.19l3.75.95a75,75,0,0,1-5,10.15l1.73-.08,1.52-.16a26.53,26.53,0,0,0,1.36-2.72l1-2.51Zm-8.84,29.32c0-.36,0-1.17.06-2.45s.06-2.07.06-2.4a31.81,31.81,0,0,0-.28-4.44l2.92-.21c.08.55.15,1,.2,1.36a36.38,36.38,0,0,1,.52,4.87c0,1.44.07,2.47.1,3.11Zm5.92-1.07-.82-4.65a35.43,35.43,0,0,0-1-4l2.72-.49c.16.47.3.85.41,1.15a38.71,38.71,0,0,1,1.6,5.88c.06.36.14.78.25,1.28Zm7,2.39h-3.49V19h21.43V50.43a5,5,0,0,1-.81,3.2q-.8,1-3.27,1h-3.94l-1.11-3.74,4.19.2c1,0,1.44-.42,1.44-1.27V40.14h-8.55v3.79c0,.82.12,1.33.37,1.54a1.81,1.81,0,0,0,1.19.31h5.43v3.08h-6.13a4.26,4.26,0,0,1-3.11-1c-.67-.68-1-1.93-1-3.77v-4h-2.64Zm0-25.87h3.09l-.78-2.47c-.22-.58-.5-1.25-.82-2l-.42-.94,3.29-.54a26.71,26.71,0,0,1,1.11,3l.87,3h1.73c.11-.33.2-.59.28-.78a26.23,26.23,0,0,0,1.4-5.27l3.37.66a22,22,0,0,1-1.64,5.39h3V22.05H286.34Zm0,7.73h6l-.74-1.65c-.28-.54-.62-1.16-1-1.85l3.25-.65a16.08,16.08,0,0,1,1.11,2l1,2.18h4.89V32.37H286.34Z"/><path class="cls-3" d="M324.4,49.65l3-7.83h1l3.17,7.8,2.84-7.43h3.09l-5.32,11.64h-1.41l-2.63-7.3-3,7.3h-1.44l-5.23-11.64h3.09Z"/><path class="cls-3" d="M345.49,49.65l3-7.83h1l3.17,7.8,2.83-7.43h3.1l-5.32,11.64H351.9l-2.62-7.3-3,7.3h-1.44L339.6,42.19h3.09Z"/><path class="cls-3" d="M366.58,49.65l3-7.83h1l3.18,7.8,2.83-7.43h3.09l-5.31,11.64H373l-2.63-7.3-3,7.3h-1.44l-5.23-11.64h3.09Z"/><path class="cls-3" d="M387.61,52a2.09,2.09,0,0,1-.59,1.48,1.93,1.93,0,0,1-1.46.63,2,2,0,0,1-1.47-.61,2.05,2.05,0,0,1,0-2.92,2,2,0,0,1,1.46-.61,2,2,0,0,1,1.45.58A1.91,1.91,0,0,1,387.61,52Z"/><path class="cls-3" d="M396.39,53.6h-2.8V44.71h-1.36V42.42h1.36v-4.1h2.8v4.1h2.23v2.29h-2.23Z"/><path class="cls-3" d="M406.56,49.65l3-7.83h1l3.17,7.8,2.83-7.43h3.1l-5.32,11.64H413l-2.62-7.3-3,7.3H405.9l-5.23-11.64h3.09Z"/><path class="cls-1" d="M432.31,40.94a4,4,0,0,0-2.71-1.21c-1.43,0-2.14.65-2.14,1.94,0,.73.65,1.32,1.94,1.78,2.37.87,3.84,1.65,4.41,2.37a4.11,4.11,0,0,1,.85,2.65,5.14,5.14,0,0,1-1.8,4.12,6.57,6.57,0,0,1-4.43,1.54,7,7,0,0,1-5.62-2.67l1.74-2.22c1.35,1.34,2.59,2,3.72,2a2.15,2.15,0,0,0,2.47-2.39,1.92,1.92,0,0,0-1.3-1.8q-1.29-.59-2-.87c-2.48-1.08-3.72-2.38-3.72-3.92a5.14,5.14,0,0,1,1.39-3.74,4.87,4.87,0,0,1,3.66-1.44,7.58,7.58,0,0,1,5.14,1.66Z"/><path class="cls-3" d="M444.14,53.6h-2.8V44.71H440V42.42h1.36v-4.1h2.8v4.1h2.23v2.29h-2.23Z"/><path class="cls-3" d="M452.72,42.19v6.18c0,2.22.77,3.33,2.32,3.33s2.31-1.11,2.31-3.33V42.19h2.8v6.7c0,3.39-1.71,5.09-5.11,5.09s-5.12-1.7-5.12-5.09v-6.7Z"/><path class="cls-3" d="M473.35,52.53A4.2,4.2,0,0,1,469.8,54a4.63,4.63,0,0,1-3.86-1.85,6.9,6.9,0,0,1-1.43-4.33A6.42,6.42,0,0,1,466,43.56a4.66,4.66,0,0,1,3.74-1.74,4.35,4.35,0,0,1,3.58,1.41l.06-9.36h2.8V53.6h-2.8Zm.32-4.65a3.8,3.8,0,0,0-.93-2.57,2.83,2.83,0,0,0-2.22-1.07,2.92,2.92,0,0,0-2.24,1.06,3.75,3.75,0,0,0-.94,2.6,3.87,3.87,0,0,0,.91,2.6,2.91,2.91,0,0,0,2.3,1,2.82,2.82,0,0,0,2.25-1A4,4,0,0,0,473.67,47.88Z"/><path class="cls-3" d="M480,42.19h3.24l3,6.85,3.12-6.85h3.17l-8.09,16.18h-3.12l3.53-6.53Z"/><path class="cls-3" d="M500.62,52a2.09,2.09,0,0,1-.59,1.48,1.93,1.93,0,0,1-1.46.63,2,2,0,0,1-1.47-.61,2.05,2.05,0,0,1,0-2.92,2,2,0,0,1,1.46-.61,2,2,0,0,1,1.45.58A1.91,1.91,0,0,1,500.62,52Z"/><path class="cls-3" d="M513.74,45.17a3.35,3.35,0,0,0-2.4-1.07,3,3,0,0,0-2.46,1.13A4.32,4.32,0,0,0,508,48a3.67,3.67,0,0,0,1,2.68,3.3,3.3,0,0,0,2.45,1,3.14,3.14,0,0,0,2.29-1.1v2.69a5.6,5.6,0,0,1-2.81.69,5.44,5.44,0,0,1-4.13-1.76,6.11,6.11,0,0,1-1.64-4.31,6,6,0,0,1,1.69-4.32,5.59,5.59,0,0,1,4.23-1.77,4.93,4.93,0,0,1,2.66.72Z"/><path class="cls-3" d="M529.86,47.88a6,6,0,0,1-1.65,4.39A5.73,5.73,0,0,1,523.89,54a5.83,5.83,0,0,1-4.35-1.71,6,6,0,0,1-1.67-4.37,6.08,6.08,0,0,1,1.64-4.38,6.4,6.4,0,0,1,8.68,0A6,6,0,0,1,529.86,47.88Zm-9.16,0a3.81,3.81,0,0,0,.89,2.61,2.94,2.94,0,0,0,2.32,1,2.74,2.74,0,0,0,2.26-1.08A4,4,0,0,0,527,47.9a4,4,0,0,0-.87-2.57,2.76,2.76,0,0,0-2.27-1.09,2.92,2.92,0,0,0-2.3,1A4,4,0,0,0,520.7,47.93Z"/><path class="cls-3" d="M537.08,43.2a3.9,3.9,0,0,1,3.29-1.38,3.44,3.44,0,0,1,3.06,1.79A3.85,3.85,0,0,1,547,41.82c2.4,0,3.61,1.56,3.61,4.68v7.1h-2.77v-6c0-2.42-.67-3.64-2-3.64s-2,1.35-2,4v5.6H541V47.83c0-2.58-.59-3.88-1.77-3.88q-2.19,0-2.19,4v5.6h-2.8V42.19h2.8Z"/></g></svg>