<svg xmlns="http://www.w3.org/2000/svg" viewBox="0 0 22.88 27.34"><defs><style>.cls-1{fill:none;stroke:#fff;stroke-miterlimit:10;}</style></defs><title>首頁v2 切圖</title><g id="menu"><path class="cls-1" d="M22.38,16.39v5.42c0,2.78-4.89,5-10.94,5S.5,24.59.5,21.81V16.39"/><path class="cls-1" d="M22.3,11.17h.08v5.41c0,2.78-4.89,5-10.94,5S.5,19.36.5,16.58V11.17H.58"/><path class="cls-1" d="M22.35,5.14h0v5.42a2.13,2.13,0,0,1-.08.61c-.65,2.49-5.26,4.42-10.86,4.42S1.23,13.66.58,11.17a2.55,2.55,0,0,1-.08-.61V5.14h0"/><ellipse class="cls-1" cx="11.44" cy="5.53" rx="10.94" ry="5.03"/></g></svg>