<svg xmlns="http://www.w3.org/2000/svg" viewBox="0 0 21.52 33.81"><defs><style>.cls-1{fill:none;stroke:#fff;stroke-linecap:round;stroke-linejoin:round;}.cls-2{fill:#fff;}</style></defs><title>首頁v2 切圖</title><g id="menu"><path class="cls-1" d="M6.54,20.12,2.89,32a1,1,0,0,0,1.52,1.08l6.08-4.51h0l6.08,4.51A1,1,0,0,0,18.09,32L14.5,20.32"/><circle class="cls-1" cx="10.76" cy="10.76" r="10.26"/><circle class="cls-1" cx="10.76" cy="10.76" r="6.71"/><path class="cls-2" d="M9.08,13.39h1.11a.21.21,0,0,0,.21-.21V8.67a.21.21,0,0,0-.21-.21h-.8a.22.22,0,0,1-.21-.21V8.08a.22.22,0,0,1,.18-.21,4.19,4.19,0,0,0,1.2-.43.19.19,0,0,1,.1,0h.4a.21.21,0,0,1,.21.21v5.56a.21.21,0,0,0,.21.21h1a.21.21,0,0,1,.21.21v.3a.21.21,0,0,1-.21.21H9.08a.21.21,0,0,1-.21-.21v-.3A.21.21,0,0,1,9.08,13.39Z"/></g></svg>