<svg xmlns="http://www.w3.org/2000/svg" viewBox="0 0 135.5 135.5"><defs><style>.cls-1{fill:#fbb03b;}.cls-2{fill:#fff;}.cls-3{fill:none;stroke:#fff;stroke-linecap:round;stroke-linejoin:round;stroke-width:1.5px;}</style></defs><title>首頁v2 切圖</title><g id="menu"><rect class="cls-1" width="135.5" height="135.5"/><path class="cls-2" d="M29.62,95.57H22.23V94.09h3.6a16,16,0,0,0-1.41-2.7l1.44-.72a19,19,0,0,1,1.5,2.6l-1.48.82h3.74Zm7,7a14.18,14.18,0,0,0,4.14,4.23,6.59,6.59,0,0,0-1.28,1.4,17.09,17.09,0,0,1-3.72-4.25v5.19H34v-5A13.4,13.4,0,0,1,30,108.3a7.63,7.63,0,0,0-.94-1.14v.8H24.63v.9H23v-6.77H29.1v4.61a12.22,12.22,0,0,0,4.06-4.15H29.52v-1.68H34V99.43H30.2V91.55h9.5v7.88H35.78v1.44h4.46v1.68ZM29,98.21H23.05V96.75H29Zm-5.93,1.18H29v1.44H23.05Zm4.43,4.22H24.63v2.85h2.85Zm4.38-8.86h2.22v-1.7H31.86Zm0,3.18h2.22V96.21H31.86ZM38,93.05h-2.3v1.7H38Zm0,3.16h-2.3v1.72H38Z"/><path class="cls-2" d="M52.34,103.27c-.26-.62-.86-1.72-1.4-2.68v8.55H49.17v-8.31a20.2,20.2,0,0,1-2.36,5A9.24,9.24,0,0,0,46,104a20.46,20.46,0,0,0,2.78-5.86H46.25V96.41h2.92V93.57c-.74.14-1.48.26-2.18.36a5.88,5.88,0,0,0-.5-1.44,26.19,26.19,0,0,0,5.65-1.6l1,1.52a18.45,18.45,0,0,1-2.24.72v3.28h2.42v1.72H50.94v.42c.54.64,2.1,2.7,2.44,3.2ZM64.44,107v1.66H53V107h5v-2.31h-3.9v-1.6H58v-2.06c-1.12.12-2.26.2-3.3.24a5,5,0,0,0-.44-1.44,43.39,43.39,0,0,0,8-1.1l1.18,1.4a29,29,0,0,1-3.6.68v2.28h3.84v1.6H59.8V107Zm-1-8.79H54.2V91.71h9.22Zm-1.8-4.94H55.94v3.36h5.68Z"/><path class="cls-2" d="M76.82,103.15a23.33,23.33,0,0,0-1.57-2.32v8.25H73.46V101a20.08,20.08,0,0,1-2.57,4.66,10,10,0,0,0-.9-1.72,20.15,20.15,0,0,0,3.22-5.86H70.37V96.31h3.09V93.59c-.92.2-1.85.34-2.71.46a5.73,5.73,0,0,0-.54-1.44A29.5,29.5,0,0,0,76.46,91l1.28,1.42a23.86,23.86,0,0,1-2.49.78v3.1H77.6v1.76H75.25V99a37,37,0,0,1,2.65,2.7Zm11.82,4.09v1.5H76.7v-1.5H82v-1.3H77.82v-1.45H82v-1.2H78V96.81h4V95.69H77.26V94.21H82V93.09c-1.38.08-2.74.14-4,.16a5,5,0,0,0-.42-1.38A70.46,70.46,0,0,0,87.1,91l1.1,1.36a34.09,34.09,0,0,1-4.42.62v1.26h4.46v1.48H83.78v1.12h4.1v6.48h-4.1v1.2h4.16v1.45H83.78v1.3Zm-9-7.77H82V98.13H79.64ZM82,102v-1.34H79.64V102Zm1.8-3.84v1.34h2.4V98.13Zm2.4,2.5h-2.4V102h2.4Z"/><path class="cls-2" d="M97.62,97.47A8.93,8.93,0,0,1,95.11,101,5.63,5.63,0,0,0,94,99.81a7.3,7.3,0,0,0,2.46-2.76Zm4.06,10.79a34.48,34.48,0,0,0-3-2.22A7.15,7.15,0,0,1,95,109a6.23,6.23,0,0,0-1-1.36c2.54-1.06,3.39-2.43,3.67-3.77H94.39v-1.54h3.44v-1.74h1.63v1.74h1.86a12,12,0,0,0-1.16-1.36l1-.68a8.93,8.93,0,0,1,1.4,1.58l-.64.46h1.14v1.54H99.38a3.39,3.39,0,0,1-.13.72A38.84,38.84,0,0,1,102.7,107ZM98,96.55H94.41v-1.5H98v-4.2h1.62v4.2H103v1.5H99.58v3.64H98Zm-2.13-2.16A8.35,8.35,0,0,0,94.77,92l1.28-.5a8.78,8.78,0,0,1,1.15,2.36Zm4.83,2.76c.52.32,2.2,1.64,2.62,2l-1,1.2a27.24,27.24,0,0,0-2.52-2.52ZM102.78,92c-.48.9-1,1.84-1.36,2.48L100.18,94a15,15,0,0,0,1-2.5Zm4.64,14.51a13,13,0,0,1-3.74,2.72,9.91,9.91,0,0,0-1.22-1.2,10.5,10.5,0,0,0,3.38-2.47Zm-1.18-11.61c.14-.52.26-1.12.36-1.64h-3.42v-1.6h9.26v1.6H108.6c-.2.56-.4,1.14-.6,1.64h3.74v10.4h-7.86V94.87ZM110,96.29h-4.42v1.6H110Zm0,2.94h-4.42v1.62H110Zm0,3h-4.42v1.64H110Zm-.5,3.38a26,26,0,0,1,3.34,2.57l-1.42,1a21.64,21.64,0,0,0-3.28-2.66Z"/><path class="cls-3" d="M82,30.63a2.18,2.18,0,1,1-3.64,0H75.38a2.18,2.18,0,0,1,.35,1.45,2.18,2.18,0,0,1-4.35-.26,2.11,2.11,0,0,1,.36-1.19H68.8a2.18,2.18,0,0,1,.35,1.45,2.18,2.18,0,0,1-4.35-.26,2.11,2.11,0,0,1,.36-1.19H62.22a2.18,2.18,0,0,1,.35,1.45,2.18,2.18,0,0,1-4.35-.26,2.11,2.11,0,0,1,.36-1.19H55.64A2.18,2.18,0,0,1,56,32.08a2.18,2.18,0,0,1-4.35-.26A2.11,2.11,0,0,1,52,30.63H49V74.42A2.56,2.56,0,0,0,51.52,77H82.45A2.55,2.55,0,0,0,85,74.42V30.63Z"/><line class="cls-3" x1="53.32" y1="41.29" x2="80.64" y2="41.29"/><line class="cls-3" x1="53.32" y1="46.16" x2="80.64" y2="46.16"/><line class="cls-3" x1="53.32" y1="51.03" x2="80.64" y2="51.03"/><line class="cls-3" x1="53.32" y1="55.9" x2="80.64" y2="55.9"/><line class="cls-3" x1="53.32" y1="60.77" x2="80.64" y2="60.77"/></g></svg>