<svg xmlns="http://www.w3.org/2000/svg" viewBox="0 0 68.42 68.42"><defs><style>.cls-1{fill:none;stroke:#068fdf;stroke-miterlimit:10;}.cls-2{fill:#068fdf;}.cls-3{fill:#fbb03b;}</style></defs><title>首頁v2</title><g id="_2" data-name="2"><circle class="cls-1" cx="34.21" cy="34.21" r="33.71"/><path class="cls-2" d="M40.21,31.4V34a2.35,2.35,0,0,1-2.35,2.35H30.74A2.35,2.35,0,0,1,28.39,34V31.4H12.68V48.18a4.7,4.7,0,0,0,4.68,4.68H51.24a4.7,4.7,0,0,0,4.68-4.68V31.4Z"/><path class="cls-3" d="M51.24,21.14H42.06V17.58A2.57,2.57,0,0,0,39.48,15H29.12a2.57,2.57,0,0,0-2.58,2.58v3.56H17.36a4.69,4.69,0,0,0-4.68,4.68v4.64H55.92V25.82A4.69,4.69,0,0,0,51.24,21.14ZM39.7,21H28.9v-2.5a1.4,1.4,0,0,1,1.4-1.4h8a1.4,1.4,0,0,1,1.4,1.4Z"/></g></svg>