<svg xmlns="http://www.w3.org/2000/svg" viewBox="0 0 68.42 68.42"><defs><style>.cls-1{fill:none;stroke:#068fdf;stroke-miterlimit:10;}.cls-2{fill:#fbb03b;}.cls-3{fill:#068fdf;}</style></defs><title>首頁v2</title><g id="_2" data-name="2"><circle class="cls-1" cx="34.21" cy="34.21" r="33.71"/><path class="cls-2" d="M52.18,22.28l-3-3-.63-.63-3-3a1.47,1.47,0,0,0-2.25.21l-3.43,5.07,3.21,3.21.64.63L46.91,28,52,24.53A1.46,1.46,0,0,0,52.18,22.28Z"/><path class="cls-3" d="M42.44,32.52,35.1,25.18h0L26.41,26h0L15.79,48.49h0l1.29,1.29h0l7.44-7.44h0a2.37,2.37,0,1,1,.7.71h0l-7.44,7.44h0l1.29,1.29h0L41.53,41.15h0l.91-8.63Z"/><rect class="cls-2" x="34.29" y="25.19" width="13.32" height="2.94" rx="1.47" transform="translate(30.85 -21.15) rotate(45)"/><path class="cls-3" d="M53.66,53.16H17.81a1.12,1.12,0,1,0-.9,1.79,1.1,1.1,0,0,0,.9-.46H53.66a.66.66,0,0,0,.67-.66A.67.67,0,0,0,53.66,53.16Z"/></g></svg>