<svg xmlns="http://www.w3.org/2000/svg" viewBox="0 0 68.42 68.42"><defs><style>.cls-1{fill:none;stroke:#068fdf;stroke-miterlimit:10;}.cls-2{fill:#fbb03b;}.cls-3{fill:#068fdf;}</style></defs><title>首頁v2</title><g id="職場新鮮快報"><circle class="cls-1" cx="34.21" cy="34.21" r="33.71"/><path class="cls-2" d="M36.34,42.74l4.7,9a1.73,1.73,0,0,1-.73,2.33L37,55.82a1.73,1.73,0,0,1-2.33-.73L28.7,43.71a1.71,1.71,0,0,1-.05-1.48"/><path class="cls-2" d="M52.43,25.48a4.83,4.83,0,0,1,0,9.66"/><path class="cls-3" d="M21.25,20.29a10.1,10.1,0,0,0-10.09,10.1h0A10.1,10.1,0,0,0,21.25,40.5h3.69V20.29Z"/><path class="cls-3" d="M35.34,40.5h4.8a4.94,4.94,0,0,1,2.29.56l5.85,3a1.13,1.13,0,0,0,1.65-1V17.54a1.13,1.13,0,0,0-1.65-1L41.1,20.24l-13.67.08V40.5h7.91"/></g></svg>