<svg xmlns="http://www.w3.org/2000/svg" viewBox="0 0 68.42 68.42"><defs><style>.cls-1{fill:none;stroke:#068fdf;stroke-miterlimit:10;}.cls-2{fill:#068fdf;}.cls-3{fill:#fbb03b;}.cls-4{fill:#fff;}</style></defs><title>首頁v2</title><g id="_4_5" data-name="4&amp;5"><circle class="cls-1" cx="34.21" cy="34.21" r="33.71"/><path class="cls-2" d="M21.22,18V35.89A13,13,0,0,0,30.7,48.38c.55,2.46.46,5.91-1.92,10.08H39.64c-2.39-4.17-2.47-7.62-1.92-10.08a13,13,0,0,0,9.47-12.49V18Z"/><path class="cls-3" d="M20.1,34.25a4.18,4.18,0,0,1-3.31-4.09V24.45H20.1V21.36H13.69V31.1A7,7,0,0,0,20.1,38Z"/><path class="cls-3" d="M48.32,34.25a4.18,4.18,0,0,0,3.31-4.09V24.45H48.32V21.36h6.4V31.1A7,7,0,0,1,48.32,38Z"/><polygon class="cls-4" points="34.21 23.46 36.77 28.65 42.5 29.49 38.35 33.53 39.33 39.23 34.21 36.54 29.08 39.23 30.06 33.53 25.91 29.49 31.64 28.65 34.21 23.46"/></g></svg>