<svg xmlns="http://www.w3.org/2000/svg" viewBox="0 0 89.22 89.22"><defs><style>.cls-1{fill:#0071bc;}.cls-2{fill:none;stroke:#fff;stroke-linecap:round;stroke-linejoin:round;}.cls-3{fill:#fff;}</style></defs><title>首頁-手機版v2切圖</title><g id="menu"><rect class="cls-1" width="89.22" height="89.22"/><line class="cls-2" x1="26.38" y1="23.66" x2="64.39" y2="23.66"/><line class="cls-2" x1="26.38" y1="44.37" x2="64.39" y2="44.37"/><line class="cls-2" x1="26.38" y1="34.02" x2="64.39" y2="34.02"/><path class="cls-3" d="M26.52,66.71a21.51,21.51,0,0,1-1.72,5.46c.44.25.9.62,1.72,1.11,1.51.93,3.54,1.06,6.13,1.06a81,81,0,0,0,8.86-.51A7.72,7.72,0,0,0,40.92,76c-1.71.11-5.77.24-8.36.24-2.92,0-4.8-.24-6.39-1.17-.91-.51-1.7-1.29-2.19-1.29s-1.26,1.44-1.84,2.79l-1.41-1.9a14.13,14.13,0,0,1,1.72-1.92l0,0A14,14,0,0,0,24.38,68H21.59c.55-1.3,1.2-3.1,1.75-4.82H21.13V61.36H25.9c-.48,1.57-1.1,3.39-1.66,4.91H25l.31-.06ZM23.67,60.5c-.31-1-.91-2.59-1.33-3.76l1.86-.51c.44,1.18,1.06,2.7,1.37,3.65Zm9.26,10.3a18.63,18.63,0,0,1-4.42,2.86A8.85,8.85,0,0,0,27,72.4a15.14,15.14,0,0,0,4.09-2.17H26.63V68.66H30.3V66.91H27.47V65.36H30.3V64h1.88v1.39h3.08V64h1.9v1.39h2.89v1.55H37.16v1.75H41v1.57H36.21a26.23,26.23,0,0,1,4.2,2.45l-1.79.89a24.52,24.52,0,0,0-3.94-2.52l1.15-.82H31.25Zm.2-9.17a14.63,14.63,0,0,0-.35,1.48c-4.33.73-5,.88-5.4,1.08a6.45,6.45,0,0,0-.68-1.54,1.36,1.36,0,0,0,.62-1.33v-4.4h6v3.93H29v1.4ZM29,58.25v1.26h2.66V58.25Zm3.23,10.41h3.08V66.91H32.18Zm4.2-5c-1.7,0-2.12-.64-2.12-2.28v-4.4h6.1v3.94H35.92v.48c0,.6.07.82.57.82h2.57a7.2,7.2,0,0,0,1.44-.13c0,.44.08,1.06.15,1.44a5.74,5.74,0,0,1-1.52.13Zm-.46-5.35v1.26h2.67V58.27Z"/><path class="cls-3" d="M67.4,73.46H58.6V76.4H56.5V73.46H47.92V71.67H56.5V70.23H50.06V62.29H65.41v7.94H58.6v1.44h8.8ZM56.9,61.3H49.4V57h7.5Zm-2-3H51.24V60h3.69Zm-2.85,7.19H56.5V63.93H52.08Zm4.42,3.11V67H52.08v1.59ZM66,61.3H58.44V57H66Zm-2.7,2.63H58.6v1.55h4.71Zm0,3.07H58.6v1.59h4.71Zm.75-8.71H60.3V60h3.76Z"/></g></svg>